<svg xmlns="http://www.w3.org/2000/svg">
<symbol class="logo" viewBox="0 0 64 64">
<g clip-path="url(#clip0_13_32)">
<path d="M63.3 32C63.3 49.3 49.3 63.3 32 63.3C14.7 63.3 0.699997 49.3 0.699997 32C0.699997 14.7 14.7 0.700012 32 0.700012C49.3 0.700012 63.3 14.7 63.3 32ZM32 2.60001C15.7 2.60001 2.6 15.7 2.6 32C2.6 48.3 15.8 61.4 32 61.4C48.3 61.4 61.4 48.2 61.4 32C61.4 15.7 48.3 2.60001 32 2.60001Z" fill="url(#paint0_linear_13_32)"/>
<path d="M32 2.60001C15.7 2.60001 2.60001 15.7 2.60001 32C2.60001 48.3 15.8 61.4 32 61.4C48.3 61.4 61.4 48.2 61.4 32C61.4 15.7 48.3 2.60001 32 2.60001ZM32 59.5C16.8 59.5 4.50001 47.2 4.50001 32C4.50001 16.8 16.8 4.50001 32 4.50001C47.2 4.50001 59.5 16.8 59.5 32C59.5 47.2 47.2 59.5 32 59.5Z" fill="url(#paint1_linear_13_32)"/>
<path opacity="0.4" d="M32 63.3C49.3 63.3 63.3 49.3 63.3 32C63.3 14.7 49.3 0.7 32 0.7C14.7 0.7 0.7 14.7 0.7 32C0.7 49.3 14.7 63.3 32 63.3ZM32 0C49.6 0 64 14.4 64 32C64 49.6 49.6 64 32 64C14.4 64 0 49.6 0 32C0 14.4 14.4 0 32 0Z" fill="url(#paint2_linear_13_32)"/>
<path d="M2.2 32.1C2.2 15.7 15.5 2.20001 32 2.20001C48.5 2.20001 61.8 15.6 61.8 32.1C61.8 48.5 48.5 61.8 32 61.8C15.5 61.8 2.2 48.5 2.2 32.1ZM11.5 11.5C6.2 16.8 2.9 24.1 2.9 32.1C2.9 40.1 6.2 47.4 11.4 52.6C16.7 57.8 24 61.1 32 61.1C40 61.1 47.3 57.9 52.5 52.6C57.8 47.4 61 40.1 61 32.1C61 24.1 57.7 16.8 52.5 11.5C47.3 6.20001 40 2.90001 32 2.90001C24 2.90001 16.7 6.20001 11.5 11.5Z" fill="white"/>
<path opacity="0.4" d="M32 59.6C24.6 59.6 17.7 56.7 12.5 51.5C7.29999 46.3 4.39999 39.4 4.39999 32C4.39999 24.6 7.29999 17.7 12.5 12.5C17.7 7.29999 24.6 4.39999 32 4.39999C39.4 4.39999 46.3 7.29999 51.5 12.5C56.7 17.7 59.6 24.6 59.6 32C59.6 39.4 56.7 46.3 51.5 51.5C46.3 56.7 39.4 59.6 32 59.6ZM32 58.8C39.1 58.8 45.9 56 50.9 51C56 45.9 58.7 39.2 58.7 32.1C58.7 25 55.9 18.2 50.9 13.2C45.8 8.09999 39.1 5.39999 32 5.39999C24.9 5.39999 18.1 8.19999 13.1 13.2C7.99999 18.1 5.19999 24.9 5.19999 32C5.19999 39.1 7.99999 45.9 13 50.9C18.1 56 24.9 58.8 32 58.8Z" fill="url(#paint3_linear_13_32)"/>
<path d="M56.3 45C55.8 44.6 36.5 29.3 36.5 29.3L32 3.60001C31.7 3.70001 31.3 4.00001 31.1 4.40001L27.9 29.4L8 44.7C8 44.7 7.6 45.2 7.4 45.5C7.3 45.7 7.3 46 7.3 46.3L31.9 36.2L56.5 46.3C56.7 45.8 56.5 45.3 56.3 45Z" fill="white"/>
<path d="M32.2 32.8L32 37.4L54.6 46.5C55.4 46.9 56 46.7 56.6 46.3L32.5 32.7C32.4 32.6 32.2 32.7 32.2 32.8Z" fill="#565F64"/>
<path d="M32.2 32.8C32.2 32.8 33.5 35.1 35 36.7C37.1 39 39.9 40.6 39.9 40.6L54.6 46.5C55.4 46.9 56 46.7 56.6 46.3L32.5 32.7C32.4 32.6 32.2 32.7 32.2 32.8Z" fill="url(#paint4_linear_13_32)"/>
<path d="M56.5 45.4C56.5 45.3 56.4 45.2 56.3 45L35.7 29.9L32.9 31.7C32.9 31.7 33.1 31.8 33.2 31.7C33.5 31.6 34.1 31.5 34.7 31.7C35.2 31.9 56.5 45.5 56.5 45.4C56.5 45.5 56.5 45.5 56.5 45.4Z" fill="#A4AAAE" fill-opacity="0.6"/>
<path d="M55.8 44.5L36.6 29.3L35.7 29.9L56.3 45.1C56.2 44.9 56 44.7 55.8 44.5Z" fill="#333E46"/>
<path d="M32.5 31.3L32.4 31.4C32.4 31.4 32.4 31.6 32.6 31.5C32.7 31.4 35.6 29.9 36.6 29.3L33.1 5.30001C33 4.40001 32.6 4.00001 31.9 3.70001L32.3 31.5L32.5 31.3Z" fill="#565F64"/>
<path d="M30.8 5.30001V6.60001L28.6 28.7C28.6 29 28.7 29.3 29 29.5L30.3 30.5L31.2 6.10001L31.3 4.20001C31 4.40001 30.9 4.80001 30.8 5.30001ZM29.6 30.9L28.4 29.9L8.09999 44.6C8.09999 44.6 7.49999 45 7.39999 45.4L8.09999 45L29.4 31.6C29.8 31.4 29.9 31.2 29.6 30.9Z" fill="#A4AAAE" fill-opacity="0.6"/>
<path d="M31.7 32.8C31.7 32.7 31.6 32.6 31.5 32.7L7.3 46.4C7.9 46.8 8.5 46.9 9.3 46.6L31.9 37.5L31.7 32.8Z" fill="#565F64"/>
<path d="M32.4 31.4C32.4 31.4 32.4 31.5 32.5 31.5H32.6C32.7 31.4 35.6 29.9 36.6 29.3L36.2 26.4L33.1 5.29999C33.1 4.89999 33 4.59999 32.8 4.39999C32.8 4.39999 34.3 24.6 34.3 26.8C34.3 29.7 32.4 31.4 32.4 31.4Z" fill="url(#paint5_linear_13_32)"/>
<path d="M31.7 32.8C31.7 32.7 31.6 32.6 31.5 32.7L7.3 46.4C7.9 46.8 8.5 46.9 9.3 46.6L31.9 37.5L31.7 32.8Z" fill="url(#paint6_linear_13_32)" fill-opacity="0.8"/>
<path opacity="0.8" d="M9.3 46.5L31.9 37.4L31.7 33C31.3 34.2 30.6 35.5 28.7 36.5C27.3 37.3 13.9 43.9 9.1 46.2C8.8 46.4 8.4 46.5 8.2 46.6C8.6 46.8 8.9 46.7 9.3 46.5Z" fill="url(#paint7_linear_13_32)"/>
<path d="M32.5 31.3L32.4 31.4C32.4 31.4 32.4 31.6 32.6 31.5C32.7 31.4 35.6 29.9 36.6 29.3L33.1 5.30001C33 4.40001 32.6 4.00001 31.9 3.70001L32.3 31.5L32.5 31.3Z" fill="url(#paint8_linear_13_32)"/>
<path d="M32.5 31.3L32.4 31.4C32.4 31.4 32.4 31.6 32.6 31.5C32.7 31.4 35.6 29.9 36.6 29.3L33.1 5.30001C33 4.40001 32.6 4.00001 31.9 3.70001L32.3 31.5L32.5 31.3Z" fill="url(#paint9_linear_13_32)"/>
<path d="M5.1 44.4C4.4 42.8 0.399997 35 4.8 20H3.1C2.2 23 1.5 24.8 1.1 27.5C1.1 27.5 0.899997 28.5 0.799997 29.6C0.699997 30.7 0.699997 31.3 0.699997 32C0.699997 38 2.2 41.5 2.2 41.5C3.8 46.5 6.6 51 10.4 54.4C13.7 57.3 18.8 59.5 23 60.3C22.3 60.2 10.3 55.1 5.1 44.4Z" fill="url(#paint10_linear_13_32)"/>
<path d="M32.4 32.6H31.5C31.6 32.6 31.7 32.6 31.7 32.7L31.9 37.3H32L32.2 32.7C32.2 32.6 32.3 32.5 32.4 32.6Z" fill="url(#paint11_linear_13_32)"/>
<path d="M42 2.29999C52.5 6.29999 62.4 17.3 62.4 31.2C62.4 48 49 61.7 32 61.7V63.3C49 63.3 63.3 49.3 63.3 32C63.3 18.2 54.5 6.59999 42 2.29999Z" fill="url(#paint12_linear_13_32)"/>
<path d="M58.8 20.2C51.8 4.10001 36 3.20001 35.1 3.10001H35C47.1 5.30001 54.8 13.2 57.5 21.5V21.6C58.7 24.8 59.3 28.2 59.4 31.9C59.5 35.4 58.7 39.3 57.2 42.9C57.1 43.4 57 44 56.9 44H58.5C63.3 35 61.2 25.9 58.8 20.2Z" fill="url(#paint13_linear_13_32)"/>
<path d="M2.2 32.1C2.2 15.7 15.5 2.20001 32 2.20001C48.5 2.20001 61.8 15.6 61.8 32.1C61.8 48.5 48.5 61.8 32 61.8C15.5 61.8 2.2 48.5 2.2 32.1ZM11.5 11.5C6.2 16.8 2.9 24.1 2.9 32.1C2.9 40.1 6.2 47.4 11.4 52.6C16.7 57.8 24 61.1 32 61.1C40 61.1 47.3 57.9 52.5 52.6C57.8 47.4 61 40.1 61 32.1C61 24.1 57.7 16.8 52.5 11.5C47.3 6.20001 40 2.90001 32 2.90001C24 2.90001 16.7 6.20001 11.5 11.5Z" fill="#FBFBFB"/>
<path d="M7.89999 44.8L28.3 30.1C29.4 30.7 31.2 31.5 31.4 31.5C31.6 31.6 31.6 31.4 31.6 31.4L29.1 29.3C28.8 29.1 28.7 28.8 28.7 28.5L31.1 4.39999C31 4.49999 31 4.69999 30.9 4.79999C30.8 4.99999 30.8 5.09999 30.8 5.29999L27.3 29.4L8.09999 44.5C7.99999 44.6 7.89999 44.7 7.89999 44.8Z" fill="#333F47"/>
</g>
<defs>
<linearGradient id="paint0_linear_13_32" x1="7.998" y1="11.898" x2="56.002" y2="52.102" gradientUnits="userSpaceOnUse">
<stop stop-color="white"/>
<stop offset="0.1" stop-color="#CDD0D0"/>
<stop offset="0.2" stop-color="#A5ACAF"/>
<stop offset="0.3" stop-color="#98A0A4"/>
<stop offset="0.4" stop-color="#828A8F"/>
<stop offset="0.5" stop-color="#667075"/>
<stop offset="0.6" stop-color="#535C63"/>
<stop offset="0.7" stop-color="#475158"/>
<stop offset="0.8" stop-color="#434D54"/>
<stop offset="1" stop-color="#475157"/>
</linearGradient>
<linearGradient id="paint1_linear_13_32" x1="9.47101" y1="13.059" x2="54.471" y2="50.859" gradientUnits="userSpaceOnUse">
<stop stop-color="#0B1F2A"/>
<stop offset="0.2" stop-color="#333F47"/>
<stop offset="0.5" stop-color="#81898D"/>
<stop offset="0.7" stop-color="#B3B8B8"/>
<stop offset="0.8" stop-color="#DEE0DD"/>
<stop offset="1" stop-color="#FBFBFB"/>
</linearGradient>
<linearGradient id="paint2_linear_13_32" x1="42.937" y1="62.063" x2="21.037" y2="1.864" gradientUnits="userSpaceOnUse">
<stop stop-color="#E1E3E1"/>
<stop offset="0.1" stop-color="#C1C5C4"/>
<stop offset="0.3" stop-color="#9BA1A2"/>
<stop offset="0.5" stop-color="#7D8487"/>
<stop offset="0.7" stop-color="#687074" stop-opacity="0"/>
<stop offset="0.8" stop-color="#5B6469" stop-opacity="0"/>
<stop offset="1" stop-color="#576065" stop-opacity="0"/>
</linearGradient>
<linearGradient id="paint3_linear_13_32" x1="18.201" y1="8.10099" x2="45.799" y2="55.899" gradientUnits="userSpaceOnUse">
<stop stop-color="#E1E3E1"/>
<stop offset="0.1" stop-color="#C1C5C4"/>
<stop offset="0.3" stop-color="#9BA1A2"/>
<stop offset="0.5" stop-color="#7D8487"/>
<stop offset="0.7" stop-color="#687074" stop-opacity="0"/>
<stop offset="0.8" stop-color="#5B6469" stop-opacity="0"/>
<stop offset="1" stop-color="#576065" stop-opacity="0"/>
</linearGradient>
<linearGradient id="paint4_linear_13_32" x1="44.488" y1="39.393" x2="42.788" y2="42.193" gradientUnits="userSpaceOnUse">
<stop stop-color="#27343C"/>
<stop offset="1" stop-color="#00111E" stop-opacity="0"/>
</linearGradient>
<linearGradient id="paint5_linear_13_32" x1="39.58" y1="29.112" x2="36.78" y2="24.612" gradientUnits="userSpaceOnUse">
<stop offset="0.1" stop-color="#02131F"/>
<stop offset="0.9" stop-color="#02131F" stop-opacity="0"/>
</linearGradient>
<linearGradient id="paint6_linear_13_32" x1="31.982" y1="36.336" x2="27.782" y2="37.536" gradientUnits="userSpaceOnUse">
<stop offset="0.2" stop-color="#02131F"/>
<stop offset="0.9" stop-color="#02131F" stop-opacity="0"/>
</linearGradient>
<linearGradient id="paint7_linear_13_32" x1="20.791" y1="41.904" x2="20.191" y2="40.404" gradientUnits="userSpaceOnUse">
<stop stop-color="#02131F"/>
<stop offset="0.1" stop-color="#02131F"/>
<stop offset="1" stop-color="#02131F" stop-opacity="0"/>
</linearGradient>
<linearGradient id="paint8_linear_13_32" x1="35.602" y1="17.214" x2="32.202" y2="17.614" gradientUnits="userSpaceOnUse">
<stop offset="0.3" stop-color="#02131F"/>
<stop offset="0.8" stop-color="#02131F" stop-opacity="0"/>
</linearGradient>
<linearGradient id="paint9_linear_13_32" x1="35.708" y1="17.157" x2="33.407" y2="17.457" gradientUnits="userSpaceOnUse">
<stop offset="0.4" stop-color="#27343C"/>
<stop offset="1" stop-color="#3B474E" stop-opacity="0"/>
</linearGradient>
<linearGradient id="paint10_linear_13_32" x1="-0.360003" y1="32.831" x2="27.54" y2="48.931" gradientUnits="userSpaceOnUse">
<stop stop-color="#25323B" stop-opacity="0"/>
<stop offset="0.1" stop-color="#27343C"/>
</linearGradient>
<linearGradient id="paint11_linear_13_32" x1="31.95" y1="37.4" x2="31.95" y2="32.6" gradientUnits="userSpaceOnUse">
<stop offset="0.3" stop-color="#A5ABAF"/>
<stop offset="1" stop-color="#A5ABAF" stop-opacity="0"/>
</linearGradient>
<linearGradient id="paint12_linear_13_32" x1="47.65" y1="2.29999" x2="47.65" y2="63.3" gradientUnits="userSpaceOnUse">
<stop stop-color="#6B7378"/>
<stop offset="0.2" stop-color="#333F47"/>
<stop offset="0.5" stop-color="#27343C"/>
<stop offset="0.8" stop-color="#333F47"/>
<stop offset="1" stop-color="#434D54"/>
</linearGradient>
<linearGradient id="paint13_linear_13_32" x1="57.289" y1="8.09301" x2="43.789" y2="27.893" gradientUnits="userSpaceOnUse">
<stop offset="0.7" stop-color="#49545B"/>
<stop offset="0.8" stop-color="white" stop-opacity="0"/>
</linearGradient>
<clipPath id="clip0_13_32">
<rect width="64" height="64" fill="white"/>
</clipPath>
</defs>
</symbol>
</svg>