<svg width="64" height="64" viewBox="0 0 64 64" fill="none" xmlns="http://www.w3.org/2000/svg">
<path d="M34.6667 13.3333C34.6667 11.8606 33.4728 10.6667 32 10.6667C30.5272 10.6667 29.3334 11.8606 29.3334 13.3333C29.3334 14.8061 30.5272 16 32 16C33.4728 16 34.6667 14.8061 34.6667 13.3333Z" stroke="#FCFCFC" stroke-width="1.984" stroke-linecap="round" stroke-linejoin="round"/>
<path d="M34.6667 32C34.6667 30.5272 33.4728 29.3333 32 29.3333C30.5272 29.3333 29.3334 30.5272 29.3334 32C29.3334 33.4728 30.5272 34.6666 32 34.6666C33.4728 34.6666 34.6667 33.4728 34.6667 32Z" stroke="#FCFCFC" stroke-width="1.984" stroke-linecap="round" stroke-linejoin="round"/>
<path d="M34.6667 50.6667C34.6667 49.1939 33.4728 48 32 48C30.5272 48 29.3334 49.1939 29.3334 50.6667C29.3334 52.1395 30.5272 53.3333 32 53.3333C33.4728 53.3333 34.6667 52.1395 34.6667 50.6667Z" stroke="#FCFCFC" stroke-width="1.984" stroke-linecap="round" stroke-linejoin="round"/>
</svg>
